<svg width="65" height="65" viewBox="0 0 65 65" fill="none" xmlns="http://www.w3.org/2000/svg">
<path d="M48.204 39.468L42.3798 33.696C46.8 28.1841 46.3839 20.072 41.3399 15.028C38.688 12.3761 35.204 10.9202 31.4599 10.9202C27.7159 10.9202 24.18 12.3762 21.5279 15.028C18.876 17.6799 17.42 21.1642 17.42 24.96C17.42 28.7559 18.876 32.2398 21.5279 34.892C24.1798 37.492 27.664 38.9998 31.4599 38.9998C34.6319 38.9998 37.752 37.9076 40.1957 35.9319L45.9677 41.7039C46.2796 42.0159 46.6438 42.1718 47.0599 42.1718C47.4759 42.1718 47.8919 42.0159 48.152 41.7039C48.7759 41.0797 48.7759 40.092 48.2039 39.4677L48.204 39.468ZM42.3798 24.96C42.3798 27.8719 41.2358 30.6279 39.1559 32.6559C37.076 34.6839 34.3719 35.8798 31.46 35.8798C28.548 35.8798 25.792 34.7358 23.764 32.6559C21.7357 30.5761 20.5398 27.8719 20.5398 24.96C20.5398 22.0481 21.6838 19.2921 23.7637 17.2641C25.8439 15.2357 28.4958 14.0398 31.46 14.0398C34.3719 14.0398 37.1279 15.1838 39.1559 17.2637C41.1839 19.3439 42.3798 21.9958 42.3798 24.96Z" fill="white"/>
</svg>
